<svg xmlns="http://www.w3.org/2000/svg" width="21.999" height="22" viewBox="0 0 21.999 22">
  <path id="instagram-glyph-1" d="M7.334,11A3.667,3.667,0,1,1,11,14.667,3.667,3.667,0,0,1,7.334,11M5.352,11A5.648,5.648,0,1,0,11,5.352,5.648,5.648,0,0,0,5.352,11m10.2-5.872a1.32,1.32,0,1,0,1.32-1.319,1.321,1.321,0,0,0-1.32,1.319m-9,14.826a6.076,6.076,0,0,1-2.043-.379,3.421,3.421,0,0,1-1.265-.823,3.4,3.4,0,0,1-.823-1.264,6.076,6.076,0,0,1-.379-2.043c-.053-1.16-.064-1.508-.064-4.445s.012-3.285.064-4.445a6.1,6.1,0,0,1,.379-2.043,3.421,3.421,0,0,1,.823-1.265,3.4,3.4,0,0,1,1.265-.823,6.076,6.076,0,0,1,2.043-.379c1.16-.053,1.508-.064,4.444-.064s3.285.012,4.445.064a6.1,6.1,0,0,1,2.043.379,3.41,3.41,0,0,1,1.265.823,3.414,3.414,0,0,1,.823,1.265,6.076,6.076,0,0,1,.379,2.043c.053,1.16.064,1.508.064,4.445s-.011,3.285-.064,4.445a6.1,6.1,0,0,1-.379,2.043,3.642,3.642,0,0,1-2.088,2.087,6.076,6.076,0,0,1-2.043.379c-1.16.053-1.508.064-4.445.064s-3.285-.011-4.444-.064M6.465.067a8.069,8.069,0,0,0-2.67.511A5.4,5.4,0,0,0,1.846,1.846,5.383,5.383,0,0,0,.578,3.795a8.069,8.069,0,0,0-.511,2.67C.012,7.638,0,8.013,0,11s.012,3.362.067,4.535a8.069,8.069,0,0,0,.511,2.67,5.379,5.379,0,0,0,1.269,1.949,5.394,5.394,0,0,0,1.949,1.269,8.073,8.073,0,0,0,2.67.511C7.639,21.987,8.013,22,11,22s3.362-.012,4.535-.067a8.069,8.069,0,0,0,2.67-.511,5.625,5.625,0,0,0,3.217-3.217,8.046,8.046,0,0,0,.511-2.67C21.987,14.361,22,13.987,22,11s-.012-3.362-.066-4.535a8.069,8.069,0,0,0-.511-2.67,5.409,5.409,0,0,0-1.269-1.949A5.4,5.4,0,0,0,18.206.578a8.056,8.056,0,0,0-2.67-.511C14.363.013,13.988,0,11,0S7.639.012,6.465.067" fill="#354052"/>
</svg>
