<svg id="linkedin" xmlns="http://www.w3.org/2000/svg" width="22.108" height="22.108" viewBox="0 0 22.108 22.108">
  <path id="Path_4946" data-name="Path 4946" d="M22.772,22.705h.006V14.6c0-3.967-.854-7.022-5.491-7.022A4.814,4.814,0,0,0,12.95,9.957h-.064V7.944h-4.4V22.7h4.578V15.4c0-1.924.365-3.785,2.748-3.785,2.348,0,2.383,2.2,2.383,3.909v7.186Z" transform="translate(-0.669 -0.597)" fill="#354052"/>
  <path id="Path_4947" data-name="Path 4947" d="M.4,7.977H4.98v14.76H.4Z" transform="translate(-0.031 -0.629)" fill="#354052"/>
  <path id="Path_4948" data-name="Path 4948" d="M2.655,0A2.667,2.667,0,1,0,5.31,2.655,2.656,2.656,0,0,0,2.655,0Z" fill="#354052"/>
</svg>
